<?xml version="1.0" standalone="no"?>
<!DOCTYPE svg PUBLIC "-//W3C//DTD SVG 20010904//EN"
 "http://www.w3.org/TR/2001/REC-SVG-20010904/DTD/svg10.dtd">
<svg version="1.0" xmlns="http://www.w3.org/2000/svg"
 width="700.000000pt" height="700.000000pt" viewBox="0 0 700.000000 700.000000"
 preserveAspectRatio="xMidYMid meet">
<metadata>
Created by potrace 1.11, written by Peter Selinger 2001-2013
</metadata>
<g transform="translate(0.000000,700.000000) scale(0.100000,-0.100000)"
fill="#000000" stroke="none">
<path d="M575 6976 c-218 -70 -388 -217 -489 -421 -89 -179 -80 147 -84 -3005
-3 -3091 -7 -2866 60 -3029 99 -237 296 -408 556 -484 l77 -22 2800 0 2800 0
80 22 c233 64 408 199 524 404 40 71 77 178 90 260 7 43 11 961 11 2816 0
3011 4 2816 -59 2979 -87 225 -290 412 -525 483 l-68 21 -2852 0 -2851 -1 -70
-23z m1418 -932 c84 -21 191 -75 256 -129 125 -102 245 -272 298 -420 l28 -80
3 -2229 2 -2229 -127 7 c-249 12 -415 66 -499 160 -54 59 -126 204 -149 300
-9 37 -21 107 -26 155 -10 103 -12 4474 -1 4485 10 11 142 -1 215 -20z m2550
-1438 c380 -113 585 -424 664 -1009 14 -106 17 -286 20 -1374 l4 -1252 -47 -7
c-66 -10 -276 2 -350 20 -196 48 -308 166 -381 403 l-27 88 -7 910 c-5 779 -8
924 -23 1010 -51 309 -169 435 -408 435 -226 0 -577 -176 -844 -424 l-92 -85
-6 37 c-9 59 -7 213 5 278 43 243 130 397 343 609 217 215 427 331 688 381 49
9 123 12 223 10 126 -3 164 -8 238 -30z"/>
</g>
</svg>
