<?xml version="1.0" encoding="utf-8"?>
<!-- Generator: Adobe Illustrator 24.1.0, SVG Export Plug-In . SVG Version: 6.00 Build 0)  -->
<svg version="1.1" xmlns="http://www.w3.org/2000/svg" xmlns:xlink="http://www.w3.org/1999/xlink" x="0px" y="0px"
	 viewBox="0 0 114.9 114.9" style="enable-background:new 0 0 114.9 114.9;" xml:space="preserve">
<style type="text/css">
	.st0{display:none;}
	.st1{display:inline;fill:#EDF7FD;}
	.st2{display:inline;fill:#359BD7;}
	.st3{display:inline;}
	.st4{fill:#FFFFFF;}
	.st5{fill:#EDF7FD;}
	.st6{fill:#359BD7;}
</style>
<g id="データ収集" class="st0">
	<circle class="st1" cx="57.4" cy="57.4" r="57.4"/>
	<circle class="st2" cx="57.4" cy="57.4" r="45.8"/>
	<g class="st3">
		<path class="st4" d="M78.7,62.9l-3.2-0.5c-0.2,0-0.4-0.1-0.5-0.3l-1.1-2.5c-0.1-0.2,0-0.4,0.1-0.6l1.9-2.6c0.3-0.4,0.3-0.9,0-1.2
			l-1.5-1.5c-0.3-0.3-0.9-0.4-1.2,0l-2.6,1.9c-0.2,0.1-0.4,0.2-0.6,0.1l-2.5-1.1c-0.2-0.1-0.3-0.3-0.3-0.5l-0.5-3.2
			c0-0.5-0.4-0.8-0.9-0.8h-2.2c-0.5,0-0.9,0.4-0.9,0.8l-0.5,3.2c0,0.2-0.1,0.4-0.3,0.5l-2.5,1.1c-0.2,0.1-0.4,0-0.6-0.1l-2.6-1.9
			c-0.4-0.3-0.9-0.3-1.2,0l-1.5,1.5c-0.3,0.3-0.4,0.9,0,1.2l1.9,2.6c0.1,0.2,0.2,0.4,0.1,0.6l-1.1,2.5c-0.1,0.2-0.3,0.3-0.5,0.3
			l-3.2,0.5c-0.5,0-0.8,0.4-0.8,0.9V66c0,0.5,0.4,0.9,0.8,0.9l3.2,0.5c0.2,0,0.4,0.1,0.5,0.3l1.1,2.5c0.1,0.2,0,0.4-0.1,0.6
			l-1.9,2.6c-0.3,0.4-0.3,0.9,0,1.2l1.5,1.5c0.3,0.3,0.9,0.4,1.2,0l2.6-1.9c0.2-0.1,0.4-0.2,0.6-0.1l2.5,1.1
			c0.2,0.1,0.3,0.3,0.3,0.5l0.5,3.2c0,0.5,0.4,0.8,0.9,0.8h2.2c0.5,0,0.9-0.4,0.9-0.8l0.5-3.2c0-0.2,0.1-0.4,0.3-0.5l2.5-1.1
			c0.2-0.1,0.4,0,0.6,0.1l2.6,1.9c0.4,0.3,0.9,0.3,1.2,0l1.5-1.5c0.3-0.3,0.4-0.9,0-1.2L74,70.8c-0.1-0.2-0.2-0.4-0.1-0.6l1.1-2.5
			c0.1-0.2,0.3-0.3,0.5-0.3l3.2-0.5c0.5,0,0.8-0.4,0.8-0.9v-2.2C79.5,63.3,79.2,62.9,78.7,62.9z M68.2,68.5c-1,1-2.2,1.5-3.6,1.5
			c-1.3,0-2.6-0.5-3.6-1.5c-1-1-1.5-2.2-1.5-3.6c0-1.3,0.5-2.6,1.5-3.6c1-1,2.2-1.5,3.6-1.5c1.4,0,2.6,0.5,3.6,1.5
			c1,1,1.5,2.2,1.5,3.6C69.7,66.2,69.1,67.5,68.2,68.5z"/>
		<path class="st4" d="M51.4,57.1c0.4-0.1,0.5-0.5,0.4-0.9l-0.5-2.5c0-0.2,0-0.3,0.1-0.4l1.6-1.5c0.1-0.1,0.3-0.1,0.4-0.1l2.4,0.7
			c0.3,0.1,0.7,0,0.9-0.4l0.7-1.5c0.2-0.3,0-0.7-0.3-0.9l-2.1-1.4C55,48.2,55,48,55,47.9l0.1-2.2c0-0.2,0.1-0.3,0.2-0.4l2.3-1.2
			c0.3-0.2,0.5-0.5,0.4-0.9l-0.6-1.6c-0.1-0.4-0.5-0.5-0.9-0.4L54,41.7c-0.2,0-0.3,0-0.4-0.1L52.1,40C52,39.9,52,39.7,52,39.5
			l0.7-2.4c0.1-0.3,0-0.7-0.4-0.9l-1.5-0.7c-0.3-0.2-0.7,0-0.9,0.3l-1.4,2.1c-0.1,0.1-0.2,0.2-0.4,0.2L46,38c-0.2,0-0.3-0.1-0.4-0.2
			l-1.2-2.3c-0.2-0.3-0.5-0.5-0.9-0.4l-1.6,0.6c-0.4,0.1-0.5,0.5-0.4,0.9l0.5,2.5c0,0.2,0,0.3-0.1,0.4L40.3,41
			c-0.1,0.1-0.3,0.1-0.4,0.1l-2.4-0.7c-0.3-0.1-0.7,0-0.9,0.4l-0.7,1.5c-0.2,0.3,0,0.7,0.3,0.9l2.1,1.4c0.1,0.1,0.2,0.2,0.2,0.4
			l-0.1,2.2c0,0.2-0.1,0.3-0.2,0.4l-2.3,1.2c-0.3,0.2-0.5,0.5-0.4,0.9l0.6,1.6c0.1,0.4,0.5,0.5,0.9,0.4l2.5-0.5c0.2,0,0.3,0,0.4,0.1
			l1.5,1.6c0.1,0.1,0.1,0.3,0.1,0.4l-0.7,2.4c-0.1,0.3,0,0.7,0.4,0.9l1.5,0.7c0.3,0.2,0.7,0,0.9-0.3l1.4-2.1
			c0.1-0.1,0.2-0.2,0.4-0.2l2.2,0.1c0.2,0,0.3,0.1,0.4,0.2l1.2,2.3c0.2,0.3,0.5,0.5,0.9,0.4L51.4,57.1z M48,50.1
			c-1,0.4-2.1,0.3-3-0.1c-1-0.5-1.7-1.2-2-2.2c-0.4-1-0.3-2.1,0.1-3c0.5-1,1.2-1.7,2.2-2c1-0.4,2.1-0.3,3,0.1c1,0.4,1.7,1.2,2,2.2
			c0.4,1,0.3,2.1-0.1,3C49.8,49,49,49.8,48,50.1z"/>
	</g>
</g>
<g id="レイヤー_2">
	<circle class="st5" cx="57.4" cy="57.4" r="57.4"/>
	<circle class="st6" cx="57.4" cy="57.4" r="45.8"/>
	<g>
		<path class="st4" d="M44.6,70.9h7c0.5,0,0.9-0.4,0.9-0.8V57.7c0-0.5-0.4-0.8-0.9-0.8h-7c-0.5,0-0.9,0.4-0.9,0.8v12.4
			C43.7,70.5,44.1,70.9,44.6,70.9z"/>
		<path class="st4" d="M57.3,70.9h7c0.5,0,0.9-0.4,0.9-0.8V48.9c0-0.5-0.4-0.8-0.9-0.8h-7c-0.5,0-0.9,0.4-0.9,0.8v21.1
			C56.4,70.5,56.8,70.9,57.3,70.9z"/>
		<path class="st4" d="M70,70.9h7c0.5,0,0.9-0.4,0.9-0.8V39c0-0.5-0.4-0.8-0.9-0.8h-7c-0.5,0-0.9,0.4-0.9,0.8v31
			C69.1,70.5,69.5,70.9,70,70.9z"/>
		<polygon class="st4" points="78.1,74.6 40.3,74.6 40.3,36.8 40.3,35.4 35.4,35.4 35.4,36.8 35.4,74.6 35.4,78.1 35.4,79.5 
			36.8,79.5 40.3,79.5 78.1,79.5 79.5,79.5 79.5,74.6 		"/>
	</g>
</g>
<g id="レイヤー_5" class="st0">
	<circle class="st1" cx="57.4" cy="57.4" r="57.4"/>
	<circle class="st2" cx="57.4" cy="57.4" r="45.8"/>
	<g class="st3">
		<path class="st4" d="M79.1,47.6c-0.4-0.9-1-1.7-1.8-2.2c-0.8-0.6-1.8-0.9-2.8-0.9H63.9l-0.3-1.1c-0.1-0.5-0.6-0.8-1-0.8h-1.1
			c-0.6,0-1.1-0.5-1.1-1.1V41c0-0.6-0.5-1.1-1.1-1.1h-3.8c-0.6,0-1.1,0.5-1.1,1.1v0.6c0,0.6-0.5,1.1-1.1,1.1h-1.1
			c-0.5,0-0.9,0.3-1,0.8l-0.3,1.1H40.4c-0.7,0-1.4,0.1-2,0.4c-0.9,0.4-1.7,1-2.2,1.8c-0.6,0.8-0.9,1.8-0.9,2.8v20.3
			c0,0.7,0.1,1.4,0.4,2c0.4,0.9,1,1.7,1.8,2.2c0.8,0.6,1.8,0.9,2.8,0.9h34c0.7,0,1.4-0.1,2-0.4c0.9-0.4,1.7-1,2.2-1.8
			c0.6-0.8,0.9-1.8,0.9-2.8V49.6C79.5,48.9,79.4,48.2,79.1,47.6z M77.1,69.9c0,0.4-0.1,0.7-0.2,1c-0.2,0.5-0.5,0.9-1,1.2
			c-0.4,0.3-0.9,0.5-1.5,0.5h-34c-0.4,0-0.7-0.1-1-0.2c-0.5-0.2-0.9-0.5-1.2-1c-0.3-0.4-0.5-0.9-0.5-1.5V49.6c0-0.4,0.1-0.7,0.2-1
			c0.2-0.5,0.5-0.9,1-1.2c0.4-0.3,0.9-0.5,1.5-0.5h9.7L50,47.6c-0.1,0.3,0,0.7,0.2,0.9c0.2,0.3,0.5,0.4,0.9,0.4h12.7
			c0.3,0,0.7-0.2,0.9-0.4c0.2-0.3,0.3-0.6,0.2-0.9L64.6,47h9.9c0.4,0,0.7,0.1,1,0.2c0.5,0.2,0.9,0.5,1.2,1c0.3,0.4,0.5,1,0.5,1.5
			V69.9z"/>
		<path class="st4" d="M46.5,60.2c2.1,0,3.9-1.7,3.9-3.9c0-2.1-1.7-3.9-3.9-3.9c-2.1,0-3.9,1.7-3.9,3.9
			C42.6,58.4,44.3,60.2,46.5,60.2z"/>
		<path class="st4" d="M49.7,60.8c-0.1-0.1-0.5-0.1-0.6,0c-0.8,0.5-1.7,0.8-2.7,0.8s-1.9-0.3-2.7-0.8c-0.1-0.1-0.5,0-0.6,0
			c-0.6,0.6-1.5,2.1-1.7,3.1c-0.4,2.5,2.3,3.5,5,3.5c2.7,0,5.4-0.9,5-3.5C51.2,62.9,50.4,61.4,49.7,60.8z"/>
		<rect x="55.4" y="53.2" class="st4" width="17.5" height="1.9"/>
		<rect x="55.4" y="58.7" class="st4" width="17.5" height="1.9"/>
		<rect x="55.4" y="64.2" class="st4" width="11" height="1.9"/>
	</g>
</g>
<g id="レイヤー_3" class="st0">
	<circle class="st1" cx="57.4" cy="57.4" r="57.4"/>
	<circle class="st2" cx="57.4" cy="57.4" r="45.8"/>
	<g class="st3">
		<path class="st4" d="M78,41.1H65.1l-0.1,0v-3c0-1.2-1-2.1-2.2-2l-25.6,2.5c-1,0.1-1.8,1-1.8,2v33.5c0,1,0.8,1.9,1.8,2l25.6,2.5
			c1.2,0.1,2.2-0.8,2.2-2v-2.9H78c0.9,0,1.6-0.7,1.6-1.6V42.6C79.5,41.8,78.8,41.1,78,41.1z M64.2,70.5v-2.8H67v-3.8h-2.8h0v-1.7H67
			v-3.8h-2.8h0v-1.7H67v-3.8h-2.8h0v-1.7H67v-3.8h-2.8h0v-2.9h12v26v0.1H64.2L64.2,70.5z M61,71.3l0,3.2l-21.7-2.1V42.6L61,40.4
			V71.3z"/>
		<polygon class="st4" points="47.4,64.3 52.9,55.2 56.2,49.7 56.2,49.7 56.2,49.7 51.8,50.1 50.4,52.8 49.6,54.2 47.6,50.5 
			45.1,50.8 44.1,50.9 44.1,50.9 44,50.9 47.8,57.3 45,61.9 43.8,64 43.8,64 43.8,64 		"/>
		<polygon class="st4" points="52.1,58.1 52.1,58.1 52.1,58.1 50.2,61.3 52.1,64.8 56.6,65.2 53.5,60.3 		"/>
		<rect x="68.3" y="47.3" class="st4" width="5" height="3.8"/>
		<rect x="68.3" y="52.8" class="st4" width="5" height="3.8"/>
		<polygon class="st4" points="68.4,58.4 68.4,58.4 68.3,58.4 68.3,62.2 73.3,62.2 73.3,58.4 68.4,58.4 		"/>
		<rect x="68.3" y="63.9" class="st4" width="5" height="3.8"/>
	</g>
</g>
<g id="レイヤー_4" class="st0">
	<circle class="st1" cx="57.4" cy="57.4" r="57.4"/>
	<circle class="st2" cx="57.4" cy="57.4" r="45.8"/>
	<g class="st3">
		<rect x="43" y="65.6" class="st4" width="20" height="1.9"/>
		<rect x="43" y="57.9" class="st4" width="20" height="1.9"/>
		<rect x="43" y="50.1" class="st4" width="20" height="1.9"/>
		<rect x="53.6" y="42.4" class="st4" width="9.4" height="1.9"/>
		<path class="st4" d="M70.7,71.8V35.2c0-0.2,0-0.5-0.1-0.7c-0.3-1.9-2-3.4-4-3.4H50.1c-1.2,0-2.3,0.5-3.2,1.3L36.7,42.8
			c-0.8,0.8-1.3,2-1.3,3.2v25.9c0,2.2,1.8,4.1,4.1,4.1h27.2C68.9,75.9,70.7,74.1,70.7,71.8z M48.7,34v9.1c0,1-0.4,1.4-1.4,1.4h-9.1
			L48.7,34z M37.6,71.8V46.5h10.9c0.4,0,0.7-0.1,1-0.2c0.4-0.2,0.8-0.5,1-1c0.2-0.3,0.2-0.6,0.2-1V33.4h15.9c0.7,0,1.4,0.4,1.6,1.1
			c0.1,0.2,0.1,0.4,0.1,0.7v36.6c0,1-0.8,1.8-1.8,1.8H39.4C38.4,73.6,37.6,72.8,37.6,71.8z"/>
		<path class="st4" d="M75.4,39h-2.7l0.1,2.3h2.6c1,0,1.8,0.8,1.8,1.8v36.6c0,1-0.8,1.8-1.8,1.8H48.3c-0.7,0-1.4-0.5-1.6-1.1
			c-0.1-0.2-0.1-0.4-0.1-0.7v-1.6h-2.3v1.6c0,0.2,0,0.5,0.1,0.7c0.3,1.9,2,3.4,4,3.4h27.2c2.2,0,4.1-1.8,4.1-4.1V43
			C79.5,40.8,77.7,39,75.4,39z"/>
	</g>
</g>
</svg>
