<?xml version="1.0" encoding="utf-8"?>
<!-- Generator: Adobe Illustrator 24.1.0, SVG Export Plug-In . SVG Version: 6.00 Build 0)  -->
<svg version="1.1" id="レイヤー_1" xmlns="http://www.w3.org/2000/svg" xmlns:xlink="http://www.w3.org/1999/xlink" x="0px"
	 y="0px" viewBox="0 0 789.5 148.9" style="enable-background:new 0 0 789.5 148.9;" xml:space="preserve">
<style type="text/css">
	.st0{fill:#FFFFFF;}
</style>
<g>
	<g>
		<g>
			<g>
				<path class="st0" d="M22.3,73.3v68.3c0,0-12.5,0.4-16.7-3.9C-0.2,132,0,122.1,0,122.1V0c0,0,8.2-0.9,14.6,5.4
					c8.8,8.8,7.7,16.2,7.7,16.2v14.1V73.3z"/>
			</g>
		</g>
		<g>
			<path class="st0" d="M37.4,60.4c1.9-4.6,6.9-9.4,8.1-10.5c6.2-6,14.1-10.4,23.8-10.4c18.5,0,26.4,14.9,26.4,39.9v61.9
				c0,0-11.9,1.6-16.9-3.4c-5.8-5.8-5.5-15.6-5.5-15.6V82.7c0-15.3-3.7-20.8-12.1-20.8c-7,0-19.3,7-25.7,14.3
				C35.6,76.2,33.5,70.1,37.4,60.4z"/>
		</g>
	</g>
	<g>
		<g>
			<path class="st0" d="M161.9,8l-7.1,27.5h-4.4l-3-13.3c-0.7-3.2-1.3-6-1.6-8.9h-0.1c-0.4,3-1,5.7-1.9,8.9l-3.3,13.3h-4.4L129.8,8
				h4.4l2.7,13.1c0.7,3.4,1.3,6.8,1.8,9.6h0.1c0.4-3,1.2-6.2,2-9.7L144,8h4.2l2.9,13.1c0.7,3.2,1.3,6.4,1.7,9.6h0.1
				c0.5-3.2,1.1-6.3,1.8-9.7l3-13H161.9z"/>
			<path class="st0" d="M179.6,34.8c-1.4,0.6-3.6,1.2-6.3,1.2c-6,0-9.4-4-9.4-10c0-5.9,3.3-10.6,8.9-10.6c5.6,0,7.8,4.6,7.8,9.5
				c0,0.7,0,1.3-0.1,1.8h-12.6c0.1,4.5,2.9,6.2,6,6.2c2.2,0,3.7-0.4,5-0.9L179.6,34.8z M176.6,23.6c0-2.4-0.9-5.3-4.1-5.3
				c-3.1,0-4.4,3-4.6,5.3H176.6z"/>
			<path class="st0" d="M188.8,18.5c1.2-2,3.2-3.2,6-3.2c4.5,0,7.7,4,7.7,10c0,7.2-4.2,10.6-8.3,10.6c-2.6,0-4.5-1-5.9-3.4h-0.1
				l-0.2,3h-3.6c0.1-1.3,0.1-3.5,0.1-5.3V6.7h4.2L188.8,18.5L188.8,18.5z M188.8,27.7c0,2.5,1.8,4.9,4.5,4.9c3.2,0,5-2.8,5-7.1
				c0-3.7-1.6-6.9-4.9-6.9c-2.6,0-4.6,2.6-4.6,5.2V27.7z"/>
			<path class="st0" d="M214.9,8.4c2-0.3,4.4-0.6,7-0.6c11.7,0,14.2,7.2,14.2,13.4v0c0,5-1.5,8.6-4,11c-2.5,2.4-6.4,3.6-11.3,3.6
				c-2.4,0-4.4-0.1-6-0.3V8.4z M219.1,32.3c0.7,0.1,1.7,0.1,2.7,0.1c6.2,0,9.9-3.6,9.9-11.2c0-6.7-3.5-10.2-9.4-10.2
				c-1.4,0-2.5,0.1-3.2,0.3V32.3z"/>
			<path class="st0" d="M254.7,34.8c-1.4,0.6-3.6,1.2-6.3,1.2c-6,0-9.4-4-9.4-10c0-5.9,3.3-10.6,8.9-10.6c5.6,0,7.8,4.6,7.8,9.5
				c0,0.7,0,1.3-0.1,1.8H243c0.1,4.5,2.9,6.2,6,6.2c2.2,0,3.7-0.4,5-0.9L254.7,34.8z M251.7,23.6c0-2.4-0.9-5.3-4.1-5.3
				c-3.1,0-4.4,3-4.6,5.3H251.7z"/>
			<path class="st0" d="M275.6,15.7l-7.1,19.8h-4l-6.9-19.8h4.5l3.2,10.5c0.5,1.7,1,3.4,1.3,5h0.1c0.4-1.7,0.8-3.3,1.3-5l3.2-10.6
				H275.6z"/>
			<path class="st0" d="M293.2,34.8c-1.4,0.6-3.6,1.2-6.3,1.2c-6,0-9.4-4-9.4-10c0-5.9,3.3-10.6,8.9-10.6c5.6,0,7.8,4.6,7.8,9.5
				c0,0.7,0,1.3-0.1,1.8h-12.6c0.1,4.5,2.9,6.2,6,6.2c2.2,0,3.7-0.4,5-0.9L293.2,34.8z M290.3,23.6c0-2.4-0.9-5.3-4.1-5.3
				c-3.1,0-4.4,3-4.6,5.3H290.3z"/>
			<path class="st0" d="M302.4,35.6h-4.2V6.7h4.2V35.6z"/>
			<path class="st0" d="M324.9,25.5c0,7.4-4.8,10.5-9.3,10.5c-5.1,0-9.1-3.8-9.1-10.2c0-6.7,4.1-10.5,9.4-10.5
				C321.3,15.3,324.9,19.4,324.9,25.5z M315.7,18.4c-3.6,0-4.9,3.8-4.9,7.2c0,3.9,1.8,7.2,4.9,7.2c3,0,4.9-3.3,4.9-7.2
				C320.6,22.3,319.2,18.4,315.7,18.4z"/>
			<path class="st0" d="M332.8,18.8c1.4-2.2,3.5-3.5,6.3-3.5c4.5,0,7.8,4,7.8,10.1c0,7.3-4.2,10.5-8.4,10.5c-2.4,0-4.3-1.1-5.3-2.7
				h-0.1v10.4H329V22.1c0-2.6-0.1-4.6-0.1-6.4h3.7L332.8,18.8L332.8,18.8z M333.2,27.6c0,3.6,2.4,5.1,4.5,5.1c3.2,0,5-3,5-7.1
				c0-3.8-1.7-6.9-4.9-6.9c-2.5,0-4.6,2.3-4.6,5.3V27.6z"/>
			<path class="st0" d="M378.2,35.6h-4.1V24.2c0-3.3-1.1-5.5-3.6-5.5c-1.9,0-3.9,1.7-3.9,4.6v12.2h-4.1v-12c0-2.8-1-4.9-3.5-4.9
				c-1.9,0-4,1.7-4,4.8v12H351V21.3c0-2.2-0.1-3.9-0.1-5.6h3.6l0.2,2.9h0.1c1-1.7,2.8-3.3,5.8-3.3c2.5,0,4.4,1.4,5.3,3.6h0.1
				c1.3-2.2,3.3-3.6,6.1-3.6c3,0,6.2,2,6.2,8.3V35.6z"/>
			<path class="st0" d="M398,34.8c-1.4,0.6-3.6,1.2-6.3,1.2c-6,0-9.4-4-9.4-10c0-5.9,3.3-10.6,8.9-10.6c5.6,0,7.8,4.6,7.8,9.5
				c0,0.7,0,1.3-0.1,1.8h-12.6c0.1,4.5,2.9,6.2,6,6.2c2.2,0,3.7-0.4,5-0.9L398,34.8z M395,23.6c0-2.4-0.9-5.3-4.1-5.3
				c-3.1,0-4.4,3-4.6,5.3H395z"/>
			<path class="st0" d="M419.4,35.6h-4.2V23.9c0-2.8-0.9-5.2-3.8-5.2c-2.1,0-4.2,1.7-4.2,4.9v12H403V21.3c0-2.2-0.1-3.9-0.1-5.6h3.6
				l0.2,3h0.1c0.9-1.7,3-3.4,6-3.4c3.1,0,6.6,2,6.6,8.1V35.6z"/>
			<path class="st0" d="M425.5,12.1l4.1-1.3v4.9h4.7v3.1h-4.7v10c0,2.4,0.8,3.6,2.5,3.6c0.8,0,1.3-0.1,1.8-0.3l0.1,3.2
				c-0.7,0.3-1.8,0.5-3.2,0.5c-1.7,0-3.1-0.5-3.9-1.5c-1-1.1-1.5-2.7-1.5-5.3V18.9h-2.8v-3.1h2.8V12.1z"/>
			<path class="st0" d="M459.1,12.3c-0.9-0.5-2.6-1.2-4.9-1.2c-3.3,0-4.6,1.9-4.6,3.7c0,2.3,1.5,3.5,5,5c4.4,1.9,6.6,4.4,6.6,8.1
				c0,4.6-3.4,8.1-9.6,8.1c-2.6,0-5.3-0.8-6.7-1.7l0.9-3.5c1.5,0.9,3.7,1.6,6,1.6c3.3,0,5.1-1.7,5.1-4.2c0-2.3-1.4-3.8-4.7-5.1
				c-4.1-1.7-6.9-4.1-6.9-7.9c0-4.4,3.5-7.6,9-7.6c2.6,0,4.6,0.6,5.8,1.3L459.1,12.3z"/>
			<path class="st0" d="M479.9,34.8c-1.4,0.6-3.6,1.2-6.3,1.2c-6,0-9.4-4-9.4-10c0-5.9,3.3-10.6,8.9-10.6c5.6,0,7.8,4.6,7.8,9.5
				c0,0.7,0,1.3-0.1,1.8h-12.6c0.1,4.5,2.9,6.2,6,6.2c2.2,0,3.7-0.4,5-0.9L479.9,34.8z M477,23.6c0-2.4-0.9-5.3-4.1-5.3
				c-3.1,0-4.4,3-4.6,5.3H477z"/>
			<path class="st0" d="M494.9,19.4c-0.4-0.1-0.8-0.1-1.2-0.1c-2.8,0-4.6,2.3-4.6,5.8v10.5h-4.2V21.8c0-2.3,0-4.2-0.1-6h3.6l0.1,3.6
				h0.1c0.9-2.5,3-4.1,5.1-4.1c0.4,0,0.7,0,1,0.1V19.4z"/>
			<path class="st0" d="M514,15.7l-7.1,19.8h-4L496,15.7h4.5l3.2,10.5c0.5,1.7,1,3.4,1.3,5h0.1c0.4-1.7,0.8-3.3,1.3-5l3.2-10.6H514z
				"/>
			<path class="st0" d="M519.2,12.7c-1.4,0-2.4-1.1-2.4-2.4c0-1.4,1-2.4,2.4-2.4c1.4,0,2.4,1,2.4,2.4
				C521.7,11.6,520.7,12.7,519.2,12.7z M521.3,35.6h-4.2V15.7h4.2V35.6z"/>
			<path class="st0" d="M540,35c-0.9,0.4-2.8,1-5.1,1c-5.7,0-9.5-3.9-9.5-10.1c0-6,3.9-10.5,10.3-10.5c1.9,0,3.6,0.5,4.4,0.9
				l-0.8,3.2c-0.7-0.4-1.9-0.8-3.6-0.8c-3.9,0-6,3.2-6,7.1c0,4.4,2.6,6.9,6,6.9c1.7,0,2.8-0.4,3.7-0.8L540,35z"/>
			<path class="st0" d="M558.3,34.8c-1.4,0.6-3.6,1.2-6.3,1.2c-6,0-9.4-4-9.4-10c0-5.9,3.3-10.6,8.9-10.6c5.6,0,7.8,4.6,7.8,9.5
				c0,0.7,0,1.3-0.1,1.8h-12.6c0.1,4.5,2.9,6.2,6,6.2c2.2,0,3.7-0.4,5-0.9L558.3,34.8z M555.3,23.6c0-2.4-0.9-5.3-4.1-5.3
				c-3.1,0-4.4,3-4.6,5.3H555.3z"/>
			<path class="st0" d="M187.2,125.7h-10.8V93.4h-29v32.4h-10.8V54.5h10.8v29.4h29V54.5h10.8V125.7z"/>
			<path class="st0" d="M237.4,113.6c0,4.4,0.1,8.8,0.7,12.2h-9.8l-0.7-6h-0.3c-2.9,4-7.9,7-14.3,7c-9.6,0-15.1-7.1-15.1-15
				c0-12.7,11.1-19.1,28.6-19.1c0-3.8,0-11.4-10.3-11.4c-4.6,0-9.2,1.4-12.5,3.5l-2.2-7.2c3.6-2.3,9.7-4.3,16.6-4.3
				c15.1,0,19.3,10,19.3,20.8V113.6z M226.8,100c-8.5,0-18.2,1.6-18.2,10.7c0,5.7,3.5,8.2,7.5,8.2c5.9,0,10.7-4.5,10.7-10.4V100z"/>
			<path class="st0" d="M276.4,84.2c-2-1.3-5.6-2.9-9.8-2.9c-4.8,0-7.4,2.8-7.4,6.2c0,3.5,2.3,5.3,8.6,8c8.5,3.4,12.9,8.1,12.9,15.5
				c0,9.9-7.5,15.7-19.2,15.7c-5.4,0-10.5-1.4-14-3.4l2.4-8c2.6,1.6,7.3,3.4,11.7,3.4c5.8,0,8.6-2.8,8.6-6.7c0-3.9-2.1-6-8.3-8.6
				c-9.1-3.6-13.1-8.7-13.1-14.7c0-8.6,7-15.3,17.8-15.3c5,0,9.4,1.4,12.2,3L276.4,84.2z"/>
			<path class="st0" d="M328.7,123.7c-3.6,1.7-9.3,3.1-16.3,3.1c-15.4,0-24.4-10.3-24.4-25.9c0-15.3,8.6-27.4,23.1-27.4
				c14.4,0,20.2,12,20.2,24.6c0,1.8-0.1,3.3-0.3,4.6h-32.6c0.3,11.5,7.4,15.9,15.5,15.9c5.7,0,9.6-1,12.9-2.4L328.7,123.7z
				 M321.1,94.9c0.1-6.1-2.4-13.8-10.7-13.8c-7.9,0-11.3,7.8-11.8,13.8H321.1z"/>
			<path class="st0" d="M412,125.7h-10.6V96.4c0-8.6-2.8-14.2-9.3-14.2c-4.9,0-10,4.5-10,11.9v31.6h-10.6V94.9
				c0-7.2-2.7-12.6-8.9-12.6c-4.8,0-10.3,4.4-10.3,12.5v31.1h-10.6V88.9c0-5.8-0.2-10-0.4-14.4h9.3l0.6,7.5h0.3
				c2.5-4.3,7.2-8.6,15-8.6c6.5,0,11.4,3.6,13.6,9.4h0.2c3.4-5.7,8.5-9.4,15.8-9.4c7.6,0,16,5.2,16,21.4V125.7z"/>
			<path class="st0" d="M461.4,113.6c0,4.4,0.1,8.8,0.7,12.2h-9.8l-0.7-6h-0.3c-2.9,4-7.9,7-14.3,7c-9.6,0-15.1-7.1-15.1-15
				c0-12.7,11.1-19.1,28.6-19.1c0-3.8,0-11.4-10.3-11.4c-4.6,0-9.2,1.4-12.5,3.5l-2.2-7.2c3.6-2.3,9.7-4.3,16.6-4.3
				c15.1,0,19.3,10,19.3,20.8V113.6z M450.9,100c-8.5,0-18.2,1.6-18.2,10.7c0,5.7,3.5,8.2,7.5,8.2c5.9,0,10.7-4.5,10.7-10.4V100z"/>
			<path class="st0" d="M529.7,65.7c-2.3-1.3-6.8-3.2-12.6-3.2c-8.5,0-12,4.9-12,9.5c0,6,4,9,13,12.9c11.4,5,16.9,11.3,16.9,21
				c0,11.9-8.8,20.8-24.8,20.8c-6.7,0-13.8-2-17.2-4.3l2.4-9c3.8,2.3,9.6,4.2,15.4,4.2c8.5,0,13.2-4.4,13.2-10.8
				c0-6-3.6-9.8-12.1-13.3c-10.6-4.3-17.8-10.7-17.8-20.4c0-11.3,9-19.7,23.2-19.7c6.8,0,11.9,1.7,15,3.3L529.7,65.7z"/>
			<path class="st0" d="M586.5,74.5L574.1,110c-6,16.8-10.3,26.3-16.5,32.3c-4.7,4.3-9.4,6-11.9,6.6l-2.8-9.1
				c11.2-4,15.2-14.4,15.2-15.8c0-0.6-0.1-1.2-0.6-2.2L540,74.5h11.8l9.3,28.8c1,3.3,2,7.3,2.8,10.2h0.3c0.7-3,1.8-6.8,2.7-10.2
				l8.3-28.8H586.5z"/>
			<path class="st0" d="M619.6,84.2c-2-1.3-5.6-2.9-9.8-2.9c-4.8,0-7.4,2.8-7.4,6.2c0,3.5,2.3,5.3,8.6,8c8.5,3.4,12.9,8.1,12.9,15.5
				c0,9.9-7.5,15.7-19.2,15.7c-5.4,0-10.5-1.4-14-3.4l2.4-8c2.6,1.6,7.3,3.4,11.7,3.4c5.8,0,8.6-2.8,8.6-6.7c0-3.9-2.1-6-8.3-8.6
				c-9.1-3.6-13.1-8.7-13.1-14.7c0-8.6,7-15.3,17.8-15.3c5,0,9.4,1.4,12.2,3L619.6,84.2z"/>
			<path class="st0" d="M636.5,65.2l10.7-3.3v12.6h12.2v8.1h-12.2v25.9c0,6.3,2,9.4,6.5,9.4c2.1,0,3.4-0.3,4.7-0.7l0.4,8.3
				c-1.9,0.7-4.7,1.2-8.4,1.2c-4.3,0-7.9-1.4-10.1-3.9c-2.6-2.8-3.8-7.1-3.8-13.8V82.6h-7.3v-8.1h7.3V65.2z"/>
			<path class="st0" d="M706.2,123.7c-3.6,1.7-9.3,3.1-16.3,3.1c-15.4,0-24.4-10.3-24.4-25.9c0-15.3,8.6-27.4,23.1-27.4
				c14.4,0,20.2,12,20.2,24.6c0,1.8-0.1,3.3-0.3,4.6h-32.6c0.3,11.5,7.4,15.9,15.5,15.9c5.7,0,9.6-1,12.9-2.4L706.2,123.7z
				 M698.5,94.9c0.1-6.1-2.4-13.8-10.7-13.8c-7.9,0-11.3,7.8-11.8,13.8H698.5z"/>
			<path class="st0" d="M789.5,125.7h-10.6V96.4c0-8.6-2.8-14.2-9.3-14.2c-4.9,0-10,4.5-10,11.9v31.6H749V94.9
				c0-7.2-2.7-12.6-8.9-12.6c-4.8,0-10.3,4.4-10.3,12.5v31.1h-10.6V88.9c0-5.8-0.2-10-0.4-14.4h9.3l0.6,7.5h0.3
				c2.5-4.3,7.2-8.6,15-8.6c6.5,0,11.4,3.6,13.6,9.4h0.2c3.4-5.7,8.5-9.4,15.8-9.4c7.6,0,16,5.2,16,21.4V125.7z"/>
		</g>
	</g>
</g>
</svg>
