<?xml version="1.0" encoding="utf-8"?>
<!-- Generator: Adobe Illustrator 24.1.0, SVG Export Plug-In . SVG Version: 6.00 Build 0)  -->
<svg version="1.1" xmlns="http://www.w3.org/2000/svg" xmlns:xlink="http://www.w3.org/1999/xlink" x="0px" y="0px"
	 viewBox="0 0 114.9 114.9" style="enable-background:new 0 0 114.9 114.9;" xml:space="preserve">
<style type="text/css">
	.st0{display:none;}
	.st1{display:inline;}
	.st2{fill:#EFF8F9;}
	.st3{fill:#2CB3BC;}
	.st4{fill:#FFFFFF;}
	.st5{fill:#EDF7FD;}
	.st6{fill:#359BD7;}
	.st7{fill:#F6FAF1;}
	.st8{fill:#69BF8E;}
	.st9{fill:#FFFBF2;}
	.st10{fill:#F5B444;}
</style>
<g id="マーケティング" class="st0">
	<g class="st1">
		<circle class="st2" cx="57.4" cy="57.4" r="57.4"/>
		<circle class="st3" cx="57.4" cy="57.4" r="45.8"/>
		<g>
			<path class="st4" d="M57.1,43.9c-1,0-1.8,0.8-1.8,1.8c0,1,0.8,1.8,1.8,1.8c0.2,0,0.4,0,0.6-0.1l4.3,4.9c-0.1,0.3-0.2,0.5-0.2,0.9
				c0,1,0.8,1.8,1.8,1.8c1,0,1.8-0.8,1.8-1.8c0-0.4-0.1-0.7-0.3-1l1.7-2.5c0.1,0,0.3,0.1,0.4,0.1c0.3,0,0.5-0.1,0.7-0.2l3.9,3.9
				c-0.1,0.2-0.2,0.5-0.2,0.7c0,1,0.8,1.8,1.8,1.8c1,0,1.8-0.8,1.8-1.8c0-1-0.8-1.8-1.8-1.8c-0.3,0-0.5,0.1-0.7,0.2l-3.9-3.9
				c0.1-0.2,0.2-0.5,0.2-0.7c0-1-0.8-1.8-1.8-1.8c-1,0-1.8,0.8-1.8,1.8c0,0.4,0.1,0.7,0.3,1L64,51.4c-0.1,0-0.3-0.1-0.4-0.1
				c-0.2,0-0.4,0-0.6,0.1l-4.3-4.9c0.1-0.3,0.2-0.5,0.2-0.9C58.9,44.6,58.1,43.9,57.1,43.9z"/>
			<path class="st4" d="M42.4,45.1c3.1,0,3.7-2.4,3.7-3.7v-1.3c0-1.3-0.6-3.7-3.7-3.7c-3.1,0-3.7,2.4-3.7,3.7v1.3
				C38.7,42.8,39.4,45.1,42.4,45.1z"/>
			<path class="st4" d="M56.7,51.2l-5.1,2.5l-2.8-4.6c-0.8-1.3-1.9-2.4-3.4-2.4h-2.3h-3.3c-2.5,0-4.5,2.1-4.5,4.7v13.6h3v14.4h2.9
				l1.8-13.1l1.8,13.1h2.9V58.7v-3.4l2.5,2.9l7.8-4.8L56.7,51.2z"/>
			<path class="st4" d="M79.5,39.5v-2.1h-1.4H66.4v-2.1h-2.8v2.1H51.9h-1.4v2.1h1.4v12.1l0.2,0.4l1.2-0.6V39.5h23.5v20.7H53.3v-2.3
				l-1.4,0.9v1.4h-1.4v2.1h1.4h12.4v5.4l-4.7,9c-0.7,0.1-1.2,0.6-1.2,1.3c0,0.8,0.6,1.4,1.4,1.4c0.8,0,1.4-0.6,1.4-1.4
				c0-0.3-0.1-0.6-0.2-0.8l3.5-6.6v6.8h1.4v-6.6l3.4,6.5c-0.1,0.2-0.2,0.5-0.2,0.7c0,0.8,0.6,1.4,1.4,1.4c0.8,0,1.4-0.6,1.4-1.4
				c0-0.7-0.6-1.3-1.3-1.4l-4.6-8.9v-5.6h12.4h1.4v-2.1h-1.4V39.5H79.5z"/>
		</g>
	</g>
</g>
<g id="データ収集" class="st0">
	<g class="st1">
		<circle class="st5" cx="57.4" cy="57.4" r="57.4"/>
		<circle class="st6" cx="57.4" cy="57.4" r="45.8"/>
		<g>
			<path class="st4" d="M79.1,43.8c-0.5-1-1.2-1.9-2.2-2.7C75.4,40,73.4,39,71,38.4c-2.3-0.6-5-1-7.9-1c-4.4,0-8.3,0.8-11.3,2.2
				c-1.5,0.7-2.7,1.5-3.6,2.6c-0.5,0.5-0.8,1.1-1.1,1.7c-0.3,0.6-0.4,1.2-0.4,1.9v2.6l2.3,1.7v-0.4c1.3,1.2,3.1,2.1,5.3,2.9
				c2.5,0.8,5.5,1.3,8.8,1.3c4.3,0,8.2-0.8,11.1-2.2c1.2-0.6,2.2-1.2,3-1.9v5.1c-0.2,0.3-0.4,0.7-0.7,1c-1,1.1-2.8,2.2-5.1,2.9
				c-2.3,0.7-5.2,1.2-8.3,1.2c-0.8,0-1.6,0-2.3-0.1l-2,1.5c1.4,0.2,2.8,0.3,4.3,0.3c4.3,0,8.2-0.8,11.1-2.2c1.2-0.6,2.2-1.2,3-1.9
				v5.1c-0.2,0.3-0.4,0.7-0.7,1c-1,1.1-2.8,2.2-5.1,2.9c-2.3,0.7-5.2,1.2-8.3,1.2c-4,0-7.6-0.8-10.2-1.9l-1.5,1.1
				c0.9,0.5,1.9,0.9,2.9,1.2c2.5,0.8,5.5,1.3,8.8,1.3c4.3,0,8.2-0.8,11.1-2.2c1.2-0.6,2.2-1.2,3-1.9v3.9c0,0.3-0.1,0.7-0.2,1
				c-0.3,0.6-0.8,1.2-1.6,1.8c-1.2,0.9-2.9,1.7-5,2.3c-2.1,0.6-4.6,0.9-7.3,0.9c-4.1,0-7.7-0.8-10.3-2c-1.3-0.6-2.3-1.3-2.9-2
				c-0.3-0.4-0.5-0.7-0.7-1c-0.1-0.3-0.2-0.7-0.2-1v-0.4L47,70.3c0.1,0.2,0.1,0.5,0.2,0.7c0.5,1,1.2,1.9,2.2,2.7
				c1.5,1.2,3.5,2.1,5.8,2.7c2.3,0.6,5,1,7.9,1c4.4,0,8.3-0.8,11.3-2.2c1.5-0.7,2.7-1.5,3.6-2.6c0.5-0.5,0.8-1.1,1.1-1.7
				c0.3-0.6,0.4-1.2,0.4-1.9V45.7C79.5,45.1,79.4,44.4,79.1,43.8z M77.3,46.9c-0.2,0.3-0.4,0.7-0.7,1c-1,1.1-2.8,2.2-5.1,2.9
				c-2.3,0.7-5.2,1.2-8.3,1.2c-4.1,0-7.8-0.8-10.4-2c-1.3-0.6-2.3-1.3-3-2.1c-0.3-0.3-0.5-0.7-0.7-1v-1.2c0-0.3,0.1-0.7,0.2-1
				c0.3-0.6,0.8-1.2,1.6-1.8c1.2-0.9,2.9-1.7,5-2.3c2.1-0.6,4.6-0.9,7.3-0.9c4.1,0,7.7,0.8,10.3,2c1.3,0.6,2.3,1.3,2.9,2
				c0.3,0.4,0.5,0.7,0.7,1c0.1,0.3,0.2,0.7,0.2,1L77.3,46.9L77.3,46.9z"/>
			<polygon class="st4" points="55.9,59.4 43,49.5 43,54.7 35.4,54.7 35.4,64.1 43,64.1 43,69.2 			"/>
		</g>
	</g>
</g>
<g id="分析" class="st0">
	<g class="st1">
		<circle class="st7" cx="57.4" cy="57.4" r="57.4"/>
		<circle class="st8" cx="57.4" cy="57.4" r="45.8"/>
		<g>
			<rect x="46.1" y="50.9" class="st4" width="5.9" height="16.6"/>
			<rect x="62.8" y="55.6" class="st4" width="5.9" height="11.9"/>
			<rect x="54.5" y="47.3" class="st4" width="5.9" height="20.2"/>
			<path class="st4" d="M73.8,53.8l5.3-0.8c-0.8-3.9-2.6-7.5-5.2-10.3l-3.8,3.8C71.9,48.5,73.2,51,73.8,53.8z"/>
			<path class="st4" d="M79.4,55.3l-5.3,0.8c0,0.4,0.1,0.9,0.1,1.3c0,1.3-0.2,2.6-0.4,3.8l5.1,1.6c0.4-1.7,0.7-3.5,0.7-5.4
				C79.5,56.7,79.5,56,79.4,55.3z"/>
			<path class="st4" d="M69.3,69.3c-3,3-7.2,4.9-11.8,4.9c-4.6,0-8.8-1.9-11.8-4.9c-3-3-4.9-7.2-4.9-11.8c0-4.6,1.9-8.8,4.9-11.8
				c2.8-2.8,6.5-4.6,10.6-4.9v-5.4c-5.6,0.3-10.7,2.7-14.4,6.4c-4,4-6.5,9.5-6.5,15.6c0,6.1,2.5,11.6,6.5,15.6c4,4,9.5,6.5,15.6,6.5
				c6.1,0,11.6-2.5,15.6-6.5c2.2-2.2,4-4.9,5.1-7.9L73,63.5C72.2,65.7,70.9,67.6,69.3,69.3z"/>
			<path class="st4" d="M72.2,41c-3.6-3.3-8.4-5.3-13.6-5.6v5.4c3.7,0.3,7.1,1.7,9.8,4L72.2,41z"/>
		</g>
	</g>
</g>
<g id="改善">
	<g>
		<circle class="st9" cx="57.4" cy="57.4" r="57.4"/>
		<circle class="st10" cx="57.4" cy="57.4" r="45.8"/>
		<g>
			<polygon class="st4" points="53,48.7 56.9,52.6 70.7,38.8 58.5,38.8 62.6,43 56.9,48.7 53,44.9 39,58.2 40.9,60.2 			"/>
			<polygon class="st4" points="79.5,44.2 59.2,63.8 53.7,58.4 35.4,76 79.5,76 			"/>
		</g>
	</g>
</g>
</svg>
