<?xml version="1.0" encoding="utf-8"?>
<!-- Generator: Adobe Illustrator 24.1.0, SVG Export Plug-In . SVG Version: 6.00 Build 0)  -->
<svg version="1.1" id="レイヤー_1" xmlns="http://www.w3.org/2000/svg" xmlns:xlink="http://www.w3.org/1999/xlink" x="0px"
	 y="0px" viewBox="0 0 114.9 114.9" style="enable-background:new 0 0 114.9 114.9;" xml:space="preserve">
<style type="text/css">
	.st0{fill:#EFF8F9;}
	.st1{fill:#2CB3BC;}
	.st2{fill:#FFFFFF;}
</style>
<g>
	<circle class="st0" cx="57.4" cy="57.4" r="57.4"/>
	<circle class="st1" cx="57.4" cy="57.4" r="45.8"/>
	<g>
		<path class="st2" d="M57.1,43.9c-1,0-1.8,0.8-1.8,1.8c0,1,0.8,1.8,1.8,1.8c0.2,0,0.4,0,0.6-0.1l4.3,4.9c-0.1,0.3-0.2,0.5-0.2,0.9
			c0,1,0.8,1.8,1.8,1.8c1,0,1.8-0.8,1.8-1.8c0-0.4-0.1-0.7-0.3-1l1.7-2.5c0.1,0,0.3,0.1,0.4,0.1c0.3,0,0.5-0.1,0.7-0.2l3.9,3.9
			c-0.1,0.2-0.2,0.5-0.2,0.7c0,1,0.8,1.8,1.8,1.8c1,0,1.8-0.8,1.8-1.8c0-1-0.8-1.8-1.8-1.8c-0.3,0-0.5,0.1-0.7,0.2l-3.9-3.9
			c0.1-0.2,0.2-0.5,0.2-0.7c0-1-0.8-1.8-1.8-1.8c-1,0-1.8,0.8-1.8,1.8c0,0.4,0.1,0.7,0.3,1L64,51.4c-0.1,0-0.3-0.1-0.4-0.1
			c-0.2,0-0.4,0-0.6,0.1l-4.3-4.9c0.1-0.3,0.2-0.5,0.2-0.9C58.9,44.6,58.1,43.9,57.1,43.9z"/>
		<path class="st2" d="M42.4,45.1c3.1,0,3.7-2.4,3.7-3.7v-1.3c0-1.3-0.6-3.7-3.7-3.7c-3.1,0-3.7,2.4-3.7,3.7v1.3
			C38.7,42.8,39.4,45.1,42.4,45.1z"/>
		<path class="st2" d="M56.7,51.2l-5.1,2.5l-2.8-4.6c-0.8-1.3-1.9-2.4-3.4-2.4h-2.3h-3.3c-2.5,0-4.5,2.1-4.5,4.7v13.6h3v14.4h2.9
			l1.8-13.1l1.8,13.1h2.9V58.7v-3.4l2.5,2.9l7.8-4.8L56.7,51.2z"/>
		<path class="st2" d="M79.5,39.5v-2.1h-1.4H66.4v-2.1h-2.8v2.1H51.9h-1.4v2.1h1.4v12.1l0.2,0.4l1.2-0.6V39.5h23.5v20.7H53.3v-2.3
			l-1.4,0.9v1.4h-1.4v2.1h1.4h12.4v5.4l-4.7,9c-0.7,0.1-1.2,0.6-1.2,1.3c0,0.8,0.6,1.4,1.4,1.4c0.8,0,1.4-0.6,1.4-1.4
			c0-0.3-0.1-0.6-0.2-0.8l3.5-6.6v6.8h1.4v-6.6l3.4,6.5c-0.1,0.2-0.2,0.5-0.2,0.7c0,0.8,0.6,1.4,1.4,1.4c0.8,0,1.4-0.6,1.4-1.4
			c0-0.7-0.6-1.3-1.3-1.4l-4.6-8.9v-5.6h12.4h1.4v-2.1h-1.4V39.5H79.5z"/>
	</g>
</g>
</svg>
