<?xml version="1.0" encoding="utf-8"?>
<!-- Generator: Adobe Illustrator 24.1.0, SVG Export Plug-In . SVG Version: 6.00 Build 0)  -->
<svg version="1.1" id="_x32_" xmlns="http://www.w3.org/2000/svg" xmlns:xlink="http://www.w3.org/1999/xlink" x="0px" y="0px"
	 viewBox="0 0 512 512" style="enable-background:new 0 0 512 512;" xml:space="preserve">
<style type="text/css">
	.st0{fill:#FFFFFF;}
</style>
<g>
	<path class="st0" d="M464,0H48C21.5,0,0,21.5,0,48v416c0,26.5,21.5,48,48,48h416c26.5,0,48-21.5,48-48V48C512,21.5,490.5,0,464,0z
		 M444.7,35c10.5,0,19,8.5,19,19s-8.5,19-19,19s-19-8.5-19-19S434.2,35,444.7,35z M374.2,35c10.5,0,19,8.5,19,19s-8.5,19-19,19
		s-19-8.5-19-19S363.7,35,374.2,35z M303.7,35c10.5,0,19,8.5,19,19s-8.5,19-19,19s-19-8.5-19-19S293.2,35,303.7,35z M472,464
		c0,4.4-3.6,8-8,8H48c-4.4,0-8-3.6-8-8V104h432V464z"/>
	<rect x="96" y="192" class="st0" width="152" height="32"/>
	<rect x="96" y="352" class="st0" width="328" height="32"/>
	<rect x="304" y="192" class="st0" width="120" height="120"/>
	<polygon class="st0" points="229,304 248,304 248,272 96,272 96,304 213,304 	"/>
</g>
</svg>
