<?xml version="1.0" encoding="utf-8"?>
<!-- Generator: Adobe Illustrator 24.1.0, SVG Export Plug-In . SVG Version: 6.00 Build 0)  -->
<svg version="1.1" id="_x32_" xmlns="http://www.w3.org/2000/svg" xmlns:xlink="http://www.w3.org/1999/xlink" x="0px" y="0px"
	 viewBox="0 0 512 512" style="enable-background:new 0 0 512 512;" xml:space="preserve">
<style type="text/css">
	.st0{fill:#FFFFFF;}
</style>
<g>
	<path class="st0" d="M464,0H48C21.5,0,0,21.5,0,48v416c0,26.5,21.5,48,48,48h416c26.5,0,48-21.5,48-48V48C512,21.5,490.5,0,464,0z
		 M444.7,35c10.5,0,19,8.5,19,19s-8.5,19-19,19s-19-8.5-19-19S434.2,35,444.7,35z M374.2,35c10.5,0,19,8.5,19,19s-8.5,19-19,19
		s-19-8.5-19-19S363.7,35,374.2,35z M303.7,35c10.5,0,19,8.5,19,19s-8.5,19-19,19s-19-8.5-19-19S293.2,35,303.7,35z M472,464
		c0,4.4-3.6,8-8,8H48c-4.4,0-8-3.6-8-8V104h432V464z M226.6,184.2l4.1,32.9h140.6l-3.9,31.5H234.6l4.1,32.9h124.7l-3.9,31.5
		l-157.2,0l-23.3-165.3c-1-6.9-6.9-12.1-13.9-12.1H96.3v12.1c0,11.5,9.3,20.8,20.8,20.8h31.5l22,155.9c1.7,12.3,12.2,21.4,24.6,21.4
		l178.5,0c12.6,0,23.2-9.4,24.7-21.8l17.3-139.8H226.6z M219.9,367.9c-20,0-36.2,16.2-36.2,36.2c0,20,16.2,36.2,36.2,36.2
		c20,0,36.2-16.2,36.2-36.2C256.2,384.1,239.9,367.9,219.9,367.9z M354,367.9c-20,0-36.2,16.2-36.2,36.2c0,20,16.2,36.2,36.2,36.2
		c20,0,36.2-16.2,36.2-36.2C390.2,384.1,374,367.9,354,367.9z"/>
</g>
</svg>
