<?xml version="1.0" encoding="utf-8"?>
<!-- Generator: Adobe Illustrator 24.1.0, SVG Export Plug-In . SVG Version: 6.00 Build 0)  -->
<svg version="1.1" id="_x32_" xmlns="http://www.w3.org/2000/svg" xmlns:xlink="http://www.w3.org/1999/xlink" x="0px" y="0px"
	 viewBox="0 0 512 512" style="enable-background:new 0 0 512 512;" xml:space="preserve">
<style type="text/css">
	.st0{fill:#FFFFFF;}
</style>
<g>
	<path class="st0" d="M464,0H48C21.5,0,0,21.5,0,48v416c0,26.5,21.5,48,48,48h416c26.5,0,48-21.5,48-48V48C512,21.5,490.5,0,464,0z
		 M444.7,35c10.5,0,19,8.5,19,19s-8.5,19-19,19s-19-8.5-19-19S434.2,35,444.7,35z M374.2,35c10.5,0,19,8.5,19,19s-8.5,19-19,19
		s-19-8.5-19-19S363.7,35,374.2,35z M303.7,35c10.5,0,19,8.5,19,19s-8.5,19-19,19s-19-8.5-19-19S293.2,35,303.7,35z M472,464
		c0,4.4-3.6,8-8,8H48c-4.4,0-8-3.6-8-8V104h432V464z"/>
	<g>
		<path class="st0" d="M256,206c19.4,0,35.2-15.8,35.2-35.2s-15.8-35.2-35.2-35.2c-19.4,0-35.2,15.8-35.2,35.2S236.6,206,256,206z"
			/>
		<path class="st0" d="M256,271.5c24.2,0,48.9-8.4,45.1-31.5c-1.6-9.4-9.4-22.6-15.3-28.5c-0.8-0.8-4.2-1-5.2-0.4
			c-7.2,4.4-15.6,7-24.6,7s-17.5-2.6-24.6-7c-0.9-0.6-4.4-0.4-5.2,0.4c-5.9,5.9-13.7,19.1-15.3,28.5
			C207.1,263.1,231.8,271.5,256,271.5z"/>
		<path class="st0" d="M160.6,374.9c19.4,0,35.2-15.8,35.2-35.2c0-19.4-15.8-35.2-35.2-35.2s-35.2,15.8-35.2,35.2
			C125.4,359.2,141.1,374.9,160.6,374.9z"/>
		<path class="st0" d="M190.4,380.3c-0.8-0.8-4.2-1-5.2-0.4c-7.2,4.4-15.6,7-24.6,7s-17.5-2.6-24.6-7c-0.9-0.6-4.4-0.4-5.2,0.4
			c-5.9,5.9-13.7,19.1-15.3,28.5c-3.9,23.2,20.9,31.5,45.1,31.5s48.9-8.4,45.1-31.5C204.1,399.4,196.3,386.2,190.4,380.3z"/>
		<path class="st0" d="M351.4,374.9c19.4,0,35.2-15.8,35.2-35.2c0-19.4-15.8-35.2-35.2-35.2c-19.4,0-35.2,15.8-35.2,35.2
			C316.2,359.2,332,374.9,351.4,374.9z"/>
		<path class="st0" d="M396.5,408.8c-1.6-9.4-9.4-22.6-15.3-28.5c-0.8-0.8-4.2-1-5.2-0.4c-7.2,4.4-15.6,7-24.6,7s-17.5-2.6-24.6-7
			c-0.9-0.6-4.4-0.4-5.2,0.4c-5.9,5.9-13.7,19.1-15.3,28.5c-3.9,23.2,20.9,31.5,45.1,31.5C375.6,440.4,400.4,432,396.5,408.8z"/>
		<path class="st0" d="M303.8,356.4l-42-24.2v-48.4c0-3.2-2.6-5.8-5.8-5.8s-5.8,2.6-5.8,5.8v48.4l-42,24.2c-2.8,1.6-3.7,5.2-2.1,7.9
			c1.6,2.8,5.2,3.7,7.9,2.1l42-24.2l42,24.2c2.8,1.6,6.3,0.7,7.9-2.1C307.5,361.6,306.5,358,303.8,356.4z"/>
	</g>
</g>
</svg>
