<!--?xml version="1.0" encoding="utf-8"?-->
<!-- Generator: Adobe Illustrator 18.0.0, SVG Export Plug-In . SVG Version: 6.00 Build 0)  -->

<svg version="1.1" id="_x31_0" xmlns="http://www.w3.org/2000/svg" xmlns:xlink="http://www.w3.org/1999/xlink" x="0px" y="0px" viewBox="0 0 512 512" style="enable-background:new 0 0 512 512;" xml:space="preserve">
<style type="text/css">
	.st0{fill:#374149;}
</style>
<g>
	<path class="st0" d="M0.164,234.438L0.164,234.438H0v182.039c0,17.039,13.817,30.851,30.855,30.851h450.294
		c17.038,0,30.851-13.812,30.851-30.851V234.438H1.722H0.164z M271.614,341.371c0-33.222,26.93-60.152,60.144-60.152
		c14.645,0,28.055,5.242,38.485,13.937c10.43-8.695,23.843-13.937,38.484-13.937c33.219,0,60.149,26.93,60.149,60.148
		c0,33.219-26.93,60.149-60.149,60.149c-14.641,0-28.054-5.242-38.484-13.938c-10.43,8.695-23.84,13.938-38.485,13.938
		C298.543,401.516,271.614,374.586,271.614,341.371z"></path>
	<path class="st0" d="M408.726,377.262c19.793,0,35.894-16.102,35.894-35.894c0-19.793-16.102-35.894-35.894-35.894
		c-8.938,0-17.019,3.402-23.309,8.824c4.118,8.145,6.489,17.325,6.489,27.074c0,9.742-2.371,18.922-6.489,27.066
		C391.707,373.863,399.789,377.262,408.726,377.262z"></path>
	<path class="st0" d="M481.149,64.672H30.855C13.817,64.672,0,78.485,0,95.523v79.633h512V95.523
		C512,78.485,498.187,64.672,481.149,64.672z"></path>
</g>
</svg>
