<!--?xml version="1.0" encoding="utf-8"?-->
<!-- Generator: Adobe Illustrator 19.1.1, SVG Export Plug-In . SVG Version: 6.00 Build 0)  -->
<svg version="1.1" id="_x31_0" xmlns="http://www.w3.org/2000/svg" xmlns:xlink="http://www.w3.org/1999/xlink" x="0px" y="0px" viewBox="0 0 512 512" style="width: 256px; height: 256px; opacity: 1;" xml:space="preserve">
<style type="text/css">
	.st0{fill:#374149;}
</style>
<g>
	<polygon class="st0" points="111.588,248.652 111.588,248.766 111.588,248.766 111.588,248.926 148.193,248.926 148.193,212.317 
		111.588,212.317 	"></polygon>
	<rect x="170.768" y="212.317" class="st0" width="36.606" height="36.609"></rect>
	<polygon class="st0" points="230.072,248.652 230.068,248.766 230.072,248.766 230.072,248.926 266.678,248.926 266.678,212.317 
		230.072,212.317 	"></polygon>
	<polygon class="st0" points="325.857,212.59 325.857,212.477 325.857,212.477 325.857,212.317 289.252,212.317 289.252,248.926 
		325.857,248.926 	"></polygon>
	<polygon class="st0" points="111.588,307.957 111.588,308.066 111.588,308.066 111.588,308.226 148.193,308.226 148.193,271.621 
		111.588,271.621 	"></polygon>
	<rect x="170.768" y="271.621" class="st0" width="36.606" height="36.606"></rect>
	<polygon class="st0" points="230.072,307.957 230.068,308.066 230.072,308.066 230.072,308.226 266.678,308.226 266.678,271.621 
		230.072,271.621 	"></polygon>
	<polygon class="st0" points="111.588,330.801 111.588,367.137 111.588,367.246 111.588,367.246 111.588,367.406 148.193,367.406 
		148.193,330.801 	"></polygon>
	<rect x="170.768" y="330.801" class="st0" width="36.606" height="36.606"></rect>
	<polygon class="st0" points="230.072,330.801 230.072,367.137 230.068,367.246 230.072,367.246 230.072,367.406 266.678,367.406 
		266.678,330.801 	"></polygon>
	<path class="st0" d="M423.475,290.898V72.606c0-9.52-7.687-17.207-17.082-17.207H359.17V42.711C359.17,19.16,340.014,0,316.463,0
		h-18.914c-23.551,0-42.707,19.16-42.707,42.711v12.687h-72.359V42.711C182.483,19.16,163.326,0,139.896,0h-18.914
		C97.436,0,78.276,19.16,78.276,42.711v12.687H31.056c-9.398,0-17.086,7.687-17.086,17.207V447.82
		c0,9.516,7.687,17.203,17.086,17.203h260.879C312.556,493.453,346.112,512,383.94,512c62.965,0,114.09-51.246,114.09-114.086
		C498.029,348.859,467.037,307.008,423.475,290.898z M120.983,36.61h18.914c3.297,0,5.981,2.805,5.981,6.102v50.148
		c0,1.465-1.223,2.684-2.684,2.684h-25.625c-1.465,0-2.687-1.219-2.687-2.684V42.711C114.881,39.414,117.568,36.61,120.983,36.61z
		 M297.549,36.61h18.914c3.414,0,6.098,2.805,6.098,6.102v50.148c0,1.465-1.218,2.684-2.805,2.684h-25.5
		c-1.59,0-2.808-1.219-2.808-2.684V42.711C291.448,39.414,294.256,36.61,297.549,36.61z M383.94,475.394
		c-14.031,0-27.09-3.781-38.438-10.371c-18.18-10.371-31.722-27.941-36.606-48.808c-1.586-5.856-2.32-11.958-2.32-18.301
		c0-10.864,2.199-21.11,6.222-30.508c3.297-7.562,7.691-14.52,13.058-20.5c12.203-14.031,29.406-23.547,48.809-25.867
		c3.051-0.367,6.102-0.61,9.274-0.61c14.398,0,27.942,3.906,39.535,10.981c22.695,13.422,37.949,38.191,37.949,66.504
		C461.424,440.621,426.647,475.394,383.94,475.394z M289.252,334.461c-12.203,18.18-19.282,40.023-19.282,63.454
		c0,5.898,0.473,11.679,1.351,17.363c0.039,0.312,0.055,0.625,0.098,0.938H62.78V166.07h311.886v118.117
		c-15.293,1.266-29.676,5.696-42.699,12.426c-2.039,1.027-4.113,1.961-6.11,3.113v-27.859v-0.086l0,0v-0.161h-36.605v36.606h13.671
		l10.582,0.125c-8.234,6.442-15.508,13.962-21.57,22.45C290.959,332.019,290.108,333.242,289.252,334.461z"></path>
	<polygon class="st0" points="397.361,384.492 397.361,348.617 374.666,348.617 370.518,348.617 370.518,384.492 334.764,384.492 
		334.764,411.336 370.518,411.336 370.518,416.215 370.518,447.207 397.361,447.207 397.361,411.336 423.475,411.336 
		433.236,411.336 433.236,384.492 423.475,384.492 	"></polygon>
</g>
</svg>
