<!--?xml version="1.0" encoding="utf-8"?-->
<!-- Generator: Adobe Illustrator 18.1.1, SVG Export Plug-In . SVG Version: 6.00 Build 0)  -->

<svg version="1.1" id="_x31_0" xmlns="http://www.w3.org/2000/svg" xmlns:xlink="http://www.w3.org/1999/xlink" x="0px" y="0px" viewBox="0 0 512 512" style="enable-background:new 0 0 512 512;" xml:space="preserve">
<style type="text/css">
	.st0{fill:#374149;}
</style>
<g>
	<path class="st0" d="M230.388,364.528l-1.578-2.13l-32.828-44.427c-4.657,1.813-9.548,2.68-14.678,2.68
		c-10.81,0-21.464-4.336-29.121-12.072l-4.814-4.813c-3.946-3.95-6.895-8.567-8.915-13.502c-0.281-0.75-0.609-1.485-0.836-2.246
		l-0.046,0.047c-0.02-0.055-0.047-0.106-0.066-0.161L25.292,400.118c-24.386,24.386-24.386,64.317,0,88.62
		c24.382,24.386,64.234,24.386,88.621,0l120.23-120.23l0,0l0,0l0.114-0.114L230.388,364.528z M86.686,453.781
		c-7.341,7.258-19.096,7.258-26.358,0c-7.337-7.338-7.337-19.097,0-26.359c7.262-7.337,19.018-7.337,26.358,0
		C93.945,434.684,93.945,446.444,86.686,453.781z"></path>
	<path class="st0" d="M258.985,59.595c-1.098,1.5-2.157,3.02-3.192,4.559c-1.958,2.918-3.802,5.876-5.52,8.9
		c-0.864,1.519-1.688,3.058-2.489,4.606c-1.676,3.231-3.223,6.493-4.63,9.814c-0.539,1.286-1.051,2.582-1.554,3.883
		c-1.493,3.845-2.81,7.728-3.95,11.666c-0.175,0.618-0.343,1.238-0.511,1.86c-4.81,17.534-6.361,35.782-4.227,53.761
		c0,0.316,0.082,0.55,0.082,0.867l0.157,0.16l0.316-0.394l6.314-6.314c7.653-7.735,18.307-12.154,29.199-12.154
		c10.731,0,20.99,4.184,28.8,11.681l5.212,5.286c2.523,2.528,4.653,5.286,6.391,8.286c0.394,0.633,0.789,1.34,1.184,2.051
		c0.55,1.027,1.023,2.051,1.496,3.078c0.477,1.184,0.95,2.446,1.266,3.708c0.234,0.949,0.473,1.816,0.629,2.762
		c0.79,3.001,1.106,6.157,1.106,9.314c0,5.13-0.867,10.099-2.684,14.756l46.322,34.012l43.166,43.166
		c25.331-5.446,49.401-18.069,69.13-37.798c34.254-34.254,47.034-81.799,38.388-126.02c-0.176-0.898-0.301-1.801-0.493-2.695
		c-0.179-0.844-0.426-1.676-0.621-2.512c-1.297-5.598-2.875-11.158-4.887-16.623l-0.055,0.054c-0.019-0.054-0.034-0.114-0.054-0.168
		l-73.786,73.705l-71.732-11.126l-11.048-71.732l51.768-51.768l21.647-21.55c-0.027-0.012-0.05-0.016-0.074-0.023l0.129-0.129
		C370.538-7.628,312.773,3.182,272.925,43.034c-1.278,1.274-2.333,2.677-3.547,3.985c-1.317,1.418-2.594,2.856-3.845,4.322
		C263.232,54.032,261.048,56.774,258.985,59.595z"></path>
	<path class="st0" d="M48.768,106.913l24.702,7.263l108.111,108.11l35.195-35.114L107.56,77.952l-6.946-24.069
		c-2.997-8.521-12.389-17.913-20.674-20.909L28.409,4.96L0,33.291l28.094,52.635C31.089,94.447,40.403,103.839,48.768,106.913z"></path>
	<path class="st0" d="M363.397,285.104L363.397,285.104l-25.331-25.331l-62.422-45.928c-4.497-3.317-5.048-9.942-1.024-13.888
		l6.075-6.079c3.79-3.786,3.79-10.021,0-13.81l-4.813-4.813c-1.974-1.891-4.419-2.84-6.942-2.84c-2.45,0-4.974,0.949-6.868,2.84
		l-11.838,11.838l-68.653,68.735l-11.916,11.837c-3.79,3.786-3.79,10.021,0,13.81l4.813,4.814c1.895,1.894,4.419,2.84,6.865,2.84
		c2.523,0,4.973-0.946,6.946-2.84l5.997-5.997c1.813-1.817,4.185-2.684,6.47-2.684c2.841,0,5.602,1.262,7.419,3.707l46.006,62.34
		l0.238,0.238l156.25,156.25c6.392,6.474,14.596,9.865,22.175,9.865c5.837,0,11.282-1.973,15.385-6.075l50.034-50.112
		c9.391-9.31,7.731-26.12-3.708-37.563L363.397,285.104z"></path>
</g>
</svg>
