<!--?xml version="1.0" encoding="utf-8"?-->
<!-- Generator: Adobe Illustrator 18.0.0, SVG Export Plug-In . SVG Version: 6.00 Build 0)  -->

<svg version="1.1" id="_x31_0" xmlns="http://www.w3.org/2000/svg" xmlns:xlink="http://www.w3.org/1999/xlink" x="0px" y="0px" viewBox="0 0 512 512" style="width: 256px; height: 256px; opacity: 1;" xml:space="preserve">
<style type="text/css">
	.st0{fill:#374149;}
</style>
<g>
	<path class="st0" d="M183.546,269.05H50.443C22.584,269.05,0,295.09,0,322.949v85.616c0,27.859,22.584,50.443,50.443,50.443H183.55
		c27.859,0,50.447-22.584,50.447-50.443v-85.612C233.997,295.09,211.409,269.05,183.546,269.05z M151.101,380.678H82.896
		c-8.243,0-14.923-6.676-14.923-14.919c0-8.239,6.68-14.92,14.923-14.92h68.205c8.239,0,14.919,6.681,14.919,14.92
		C166.02,374.002,159.34,380.678,151.101,380.678z"></path>
	<path class="st0" d="M185.872,52.992H48.121C21.545,52.992,0,74.537,0,101.113v90.253c0,26.584,21.545,48.129,48.124,48.129
		h137.744c26.58,0,48.129-21.545,48.129-48.125v-90.257C233.997,74.537,212.448,52.992,185.872,52.992z M151.101,161.161h-4.263
		c-8.239,0-14.92,6.68-14.92,14.919v4.263c0,8.239-6.68,14.92-14.919,14.92h-0.004c-8.239,0-14.919-6.681-14.919-14.92v-4.263
		c0-8.239-6.677-14.919-14.92-14.919h-4.263c-8.239,0-14.919-6.681-14.919-14.92s6.68-14.919,14.919-14.919h4.263
		c8.243,0,14.92-6.677,14.92-14.919v-4.264c0-8.239,6.68-14.919,14.919-14.919h0.004c8.239,0,14.919,6.68,14.919,14.919v4.264
		c0,8.242,6.681,14.919,14.92,14.919h4.263c8.239,0,14.919,6.68,14.919,14.919S159.34,161.161,151.101,161.161z"></path>
	<path class="st0" d="M459.691,52.992H322.376c-28.89,0-52.313,23.418-52.313,52.309v301.398c0,28.89,23.422,52.309,52.313,52.309
		h137.311c28.89,0,52.313-23.418,52.313-52.313V105.301C512,76.41,488.582,52.992,459.691,52.992z M426.294,302.498H355.77
		c-8.518,0-15.423-6.908-15.423-15.427c0-8.518,6.905-15.427,15.423-15.427h70.524c8.518,0,15.427,6.909,15.427,15.427
		C441.721,295.59,434.812,302.498,426.294,302.498z M426.294,240.356H355.77c-8.518,0-15.423-6.909-15.423-15.427
		s6.905-15.427,15.423-15.427h70.524c8.518,0,15.427,6.909,15.427,15.427S434.812,240.356,426.294,240.356z"></path>
</g>
</svg>
