<?xml version="1.0" encoding="utf-8"?>
<!-- Generator: Adobe Illustrator 24.1.0, SVG Export Plug-In . SVG Version: 6.00 Build 0)  -->
<svg version="1.1" id="_x32_" xmlns="http://www.w3.org/2000/svg" xmlns:xlink="http://www.w3.org/1999/xlink" x="0px" y="0px"
	 viewBox="0 0 512 512" style="enable-background:new 0 0 512 512;" xml:space="preserve">
<style type="text/css">
	.st0{fill:#374149;}
</style>
<g>
	<path class="st0" d="M256,118.2c32.6,0,59.1-26.5,59.1-59.1S288.6,0,256,0s-59.1,26.5-59.1,59.1S223.4,118.2,256,118.2z"/>
	<path class="st0" d="M256,228.2c40.6,0,82.2-14.1,75.7-53c-2.6-15.8-15.7-38-25.6-47.9c-1.3-1.3-7.1-1.6-8.7-0.6
		c-12.1,7.4-26.2,11.8-41.4,11.8c-15.2,0-29.3-4.3-41.4-11.8c-1.6-1-7.4-0.6-8.7,0.6c-9.9,9.9-23,32.1-25.6,47.9
		C173.8,214.1,215.4,228.2,256,228.2z"/>
	<path class="st0" d="M95.7,402c32.6,0,59.1-26.5,59.1-59.1c0-32.7-26.5-59.1-59.1-59.1s-59.1,26.5-59.1,59.1
		C36.6,375.6,63,402,95.7,402z"/>
	<path class="st0" d="M145.8,411.1c-1.3-1.3-7.1-1.6-8.7-0.6c-12.1,7.4-26.2,11.8-41.4,11.8c-15.2,0-29.3-4.3-41.4-11.8
		c-1.6-1-7.4-0.7-8.7,0.6c-9.9,9.9-23,32.1-25.6,47.9c-6.5,38.9,35.1,53,75.7,53c40.6,0,82.2-14.1,75.7-53
		C168.8,443.2,155.7,421,145.8,411.1z"/>
	<path class="st0" d="M416.3,402c32.6,0,59.1-26.5,59.1-59.1c0-32.7-26.5-59.1-59.1-59.1s-59.1,26.5-59.1,59.1
		C357.2,375.6,383.7,402,416.3,402z"/>
	<path class="st0" d="M492,459c-2.6-15.8-15.7-38-25.6-47.9c-1.3-1.3-7.1-1.6-8.7-0.6c-12.1,7.4-26.2,11.8-41.4,11.8
		c-15.2,0-29.3-4.3-41.4-11.8c-1.6-1-7.4-0.7-8.7,0.6c-9.9,9.9-23,32.1-25.6,47.9c-6.5,38.9,35.1,53,75.7,53
		C456.9,512,498.5,497.9,492,459z"/>
	<path class="st0" d="M336.2,371l-70.5-40.7v-81.4c0-5.4-4.4-9.8-9.8-9.8c-5.4,0-9.7,4.4-9.7,9.8v81.4L175.8,371
		c-4.7,2.7-6.3,8.7-3.6,13.3c2.7,4.7,8.7,6.3,13.3,3.6l70.5-40.7l70.5,40.7c4.7,2.7,10.6,1.1,13.3-3.6
		C342.5,379.6,340.9,373.7,336.2,371z"/>
</g>
</svg>
