<!--?xml version="1.0" encoding="utf-8"?-->
<!-- Generator: Adobe Illustrator 19.1.1, SVG Export Plug-In . SVG Version: 6.00 Build 0)  -->
<svg version="1.1" id="_x31_0" xmlns="http://www.w3.org/2000/svg" xmlns:xlink="http://www.w3.org/1999/xlink" x="0px" y="0px" viewBox="0 0 512 512" style="enable-background:new 0 0 512 512;" xml:space="preserve">
<style type="text/css">
	.st0{fill:#374149;}
</style>
<g>
	<path class="st0" d="M335.204,326.469c-24.562-12.652-38.476-23.618-42.374-27.199v-32.89c1.789-0.734,3.582-2.004,5.269-3.895
		c0.317-0.32,0.528-0.531,0.844-0.953c4.637-5.274,8.43-11.278,10.328-16.863c0.211-0.633,0.527-1.375,0.738-2.008
		c4.219-12.011,7.379-25.402,8.012-29.195c0.102-0.41,0.102-0.718,0.102-1.023c0.004-0.012,0.004-0.02,0.008-0.031
		c1.793,0.523,3.476,0.738,4.949,0.738c17.711,0,24.985-36.266,26.039-45.86c1.054-9.59-7.59-16.234-10.649-18.762
		c0.633-1.477,1.477-3.797,2.321-6.434c0.106-0.207,0.21-0.418,0.21-0.629c1.161-3.266,2.637-7.801,4.008-13.918
		c0.84-3.684,1.578-8.118,2.317-13.176c0.422-3.16,0.527-6.535,0.422-9.801c-0.316-6.855-1.687-14.02-4.215-20.558
		c-2.109-5.582-5.062-10.856-8.538-14.969l-0.106-0.102c-2.426-2.954-5.164-5.91-8.118-8.543
		c-11.386-11.172-24.984-20.133-31.308-20.133c-12.86-23.086-29.305-38.054-59.77-40.164c-1.794,0-3.692,0-5.59-0.102h-0.418
		c-22.981,0-61.668,19.707-81.383,46.695c-2.004,2.742-3.793,5.481-5.27,8.226c-2.636,4.738-4.953,9.164-6.957,13.383
		c-3.27,6.855-5.691,13.176-7.168,19.5c-0.949,2.957-1.582,6.015-1.898,9.172c-1.266,8.859-1.054,18.347,0.738,29.625v0.102
		c0.633,4.645,1.582,9.703,2.844,15.078v0.312c0.949,2.637,1.691,4.957,2.531,6.434c-3.058,2.527-10.645,6.742-9.699,16.34
		c0.953,9.594,7.168,48.282,24.984,48.282c1.578,0,3.258-0.215,5.047-0.734l0.011-0.004c0.317,3.058,1.898,11.805,5.274,20.66
		c0.84,2.637,1.898,5.906,3.055,9.278c0.214,0.734,0.527,1.367,0.738,2c1.899,5.59,5.485,11.488,10.016,16.656
		c0.422,0.527,0.95,1.058,1.477,1.582c1.687,1.79,3.371,3.059,5.27,3.794v32.89c-3.902,3.582-17.817,14.652-42.375,27.199
		c-33.629,17.18-72.95,37.214-81.594,45.222c-6.852,6.114-15.391,18.766-22.559,35.418c-1.476,3.691-3.054,7.594-4.426,11.598
		c-1.266,3.691-2.531,7.484-3.48,11.488c-1.371,4.848-2.426,9.805-3.371,14.863c-1.688,9.809,4.214,19.192,13.808,21.719
		c56.078,14.23,125.657,22.77,200.922,22.77c21.328,0,42.137-0.727,62.394-2.098c0.711-0.043,1.465-0.059,2.172-0.102v-0.012
		c0.05-0.004,0.106-0.004,0.16-0.008c-0.211-1.789-0.32-3.683-0.32-5.586v-64.93c0-23.934,14.336-44.598,34.789-53.871
		c3.687-8.539,8.641-16.446,14.758-23.398c1.012-1.106,2.043-2.188,3.125-3.219c0.134-0.102,0.254-0.234,0.391-0.328
		c-0.016-0.008-0.031-0.015-0.047-0.023c0.039-0.039,0.074-0.082,0.114-0.122C347.536,332.793,341.212,329.523,335.204,326.469z"></path>
	<path class="st0" d="M462.017,386.554c-4.953-26.038-26.352-45.644-51.969-45.644c-10.332,0-20.344,3.27-28.883,9.378
		c-3.48,2.219-6.64,5.066-9.488,8.328c-6.957,7.805-11.598,17.5-13.598,27.938c-15.918,0.738-28.672,14.024-28.672,30.258v64.93
		c0,1.16,0.106,2.214,0.106,3.27C331.197,500.191,344.165,512,359.662,512h100.777c16.758,0,30.359-13.598,30.359-30.258v-64.93
		C490.798,400.578,478.04,387.293,462.017,386.554z M469.712,481.742c0,5.062-4.11,9.175-9.274,9.175H359.662
		c-4.746,0-8.645-3.59-9.066-8.222c-0.106-0.316-0.106-0.637-0.106-0.953v-64.93c0-5.168,4.109-9.282,9.172-9.282h18.445v-9.484
		c0-9.91,3.586-18.973,9.383-25.406c4.32-4.954,9.91-8.434,16.129-9.91c0.836-0.207,1.676-0.332,2.515-0.449
		c0.434-0.063,0.883-0.11,1.332-0.153c0.852-0.07,1.703-0.137,2.582-0.137c17.606,0,31.942,16.129,31.942,36.055v9.484h18.449
		c5.164,0,9.274,4.114,9.274,9.282V481.742z"></path>
	<path class="st0" d="M410.048,423.875c-7.168,0-13.07,5.797-13.07,13.066c0,5.168,2.844,9.598,7.168,11.699
		c-0.422,0.847-0.633,1.793-0.633,2.746v14.547c0,3.586,2.95,6.535,6.535,6.535s6.535-2.95,6.535-6.535v-14.547
		c0-0.953-0.211-1.898-0.633-2.746c4.324-2.102,7.168-6.531,7.168-11.699C423.118,429.672,417.322,423.875,410.048,423.875z"></path>
	<path class="st0" d="M410.048,376.226c-9.695,0-17.602,9.801-17.602,21.821v9.484h35.313v-9.484
		C427.759,386.027,419.853,376.226,410.048,376.226z"></path>
</g>
</svg>
